<svg width="20" height="20" viewBox="0 0 20 20" fill="none" xmlns="http://www.w3.org/2000/svg">
<path opacity="0.4" fill-rule="evenodd" clip-rule="evenodd" d="M6.80187 7.5H13.1994C13.6387 7.49999 14.0177 7.49998 14.3298 7.52548C14.6593 7.55239 14.987 7.61182 15.3023 7.77249C15.7727 8.01217 16.1552 8.39462 16.3948 8.86503C16.5555 9.18034 16.6149 9.50802 16.6418 9.83748C16.6673 10.1496 16.6673 10.5286 16.6673 10.9679V14.8655C16.6673 15.3048 16.6673 15.6837 16.6418 15.9959C16.6149 16.3253 16.5555 16.653 16.3948 16.9683C16.1552 17.4387 15.7727 17.8212 15.3023 18.0609C14.987 18.2215 14.6593 18.2809 14.3298 18.3079C14.0177 18.3334 13.6387 18.3334 13.1994 18.3333H6.80186C6.36257 18.3334 5.98361 18.3334 5.67146 18.3079C5.34201 18.2809 5.01433 18.2215 4.69901 18.0609C4.22861 17.8212 3.84615 17.4387 3.60647 16.9683C3.44581 16.653 3.38638 16.3253 3.35946 15.9959C3.33396 15.6837 3.33397 15.3047 3.33399 14.8655V10.9679C3.33397 10.5286 3.33396 10.1496 3.35946 9.83748C3.38638 9.50802 3.44581 9.18034 3.60647 8.86503C3.84615 8.39462 4.22861 8.01217 4.69901 7.77249C5.01433 7.61182 5.34201 7.55239 5.67146 7.52548C5.98359 7.49998 6.3626 7.49999 6.80187 7.5ZM10.0007 12.5C9.54042 12.5 9.16732 12.8731 9.16732 13.3333V14.1667C9.16732 14.6269 9.54042 15 10.0007 15C10.4609 15 10.834 14.6269 10.834 14.1667V13.3333C10.834 12.8731 10.4609 12.5 10.0007 12.5Z" fill="#194B38"/>
<path d="M14.9993 1.66699C16.8403 1.66699 18.3327 3.15938 18.3327 5.00033C18.3327 5.46056 17.9596 5.83366 17.4994 5.83366C17.0391 5.83366 16.666 5.46056 16.666 5.00033C16.666 4.07985 15.9198 3.33366 14.9993 3.33366C14.0789 3.33366 13.3327 4.07985 13.3327 5.00033V7.50033H11.666V5.00033C11.666 3.15938 13.1584 1.66699 14.9993 1.66699Z" fill="#194B38"/>
</svg>
